<svg width="32" height="32" viewBox="0 0 32 32" fill="none" xmlns="http://www.w3.org/2000/svg">
<mask id="mask0_974_11503" style="mask-type:alpha" maskUnits="userSpaceOnUse" x="0" y="0" width="32" height="32">
<rect width="31.3595" height="31.3595" fill="#D9D9D9"/>
</mask>
<g mask="url(#mask0_974_11503)">
<path d="M6.53321 27.4395C5.81456 27.4395 5.19935 27.1837 4.68758 26.6719C4.17581 26.1601 3.91992 25.5449 3.91992 24.8263V6.53321C3.91992 5.81456 4.17581 5.19935 4.68758 4.68758C5.19935 4.17581 5.81456 3.91992 6.53321 3.91992H24.8263C25.5449 3.91992 26.1601 4.17581 26.6719 4.68758C27.1837 5.19935 27.4395 5.81456 27.4395 6.53321V15.2877C27.0258 15.0917 26.6011 14.923 26.1656 14.7814C25.73 14.6399 25.2836 14.5364 24.8263 14.4711V6.53321H6.53321V24.8263H14.4384C14.5038 25.3054 14.6072 25.7627 14.7487 26.1982C14.8903 26.6338 15.0591 27.0476 15.2551 27.4395H6.53321ZM6.53321 24.8263V6.53321V14.4711V14.3731V24.8263ZM9.1465 22.213H14.4711C14.5364 21.7556 14.6399 21.3092 14.7814 20.8736C14.923 20.4381 15.0809 20.0134 15.2551 19.5997H9.1465V22.213ZM9.1465 16.9864H17.117C17.8139 16.3331 18.5925 15.7886 19.4527 15.3531C20.3129 14.9175 21.233 14.6235 22.213 14.4711V14.3731H9.1465V16.9864ZM9.1465 11.7598H22.213V9.1465H9.1465V11.7598ZM23.5196 30.0528C21.7121 30.0528 20.1713 29.4158 18.8973 28.1419C17.6234 26.8679 16.9864 25.3271 16.9864 23.5196C16.9864 21.7121 17.6234 20.1713 18.8973 18.8973C20.1713 17.6234 21.7121 16.9864 23.5196 16.9864C25.3271 16.9864 26.8679 17.6234 28.1419 18.8973C29.4158 20.1713 30.0528 21.7121 30.0528 23.5196C30.0528 25.3271 29.4158 26.8679 28.1419 28.1419C26.8679 29.4158 25.3271 30.0528 23.5196 30.0528ZM22.8663 27.4395H24.1729V24.1729H27.4395V22.8663H24.1729V19.5997H22.8663V22.8663H19.5997V24.1729H22.8663V27.4395Z" fill="#024F7C"/>
</g>
</svg>
