<svg width="62" height="62" viewBox="0 0 62 62" fill="none" xmlns="http://www.w3.org/2000/svg">
<g clip-path="url(#clip0_119_5088)">
<path d="M59.7864 46.8368C59.8154 47.0898 59.8312 47.3478 59.8312 47.6093C59.8312 51.2579 56.8741 54.2162 53.2243 54.2162C49.5758 54.2162 46.6174 51.2579 46.6174 47.6093C46.6174 47.3478 46.6332 47.0898 46.6622 46.8368" stroke="#024F7C" stroke-width="2" stroke-miterlimit="10" stroke-linecap="round" stroke-linejoin="round"/>
<path d="M55.7903 46.8368C55.863 47.0814 55.9029 47.3405 55.9029 47.6093C55.9029 49.0879 54.7041 50.2867 53.2243 50.2867C51.7458 50.2867 50.547 49.0879 50.547 47.6093C50.547 47.3405 50.5869 47.0814 50.6608 46.8368M60.1836 42.4423C60.7636 43.5285 61.0918 44.7685 61.0918 46.0848C61.0918 46.2842 61.0126 46.4755 60.8715 46.6165C60.7305 46.7575 60.5392 46.8368 60.3398 46.8368H46.3462C45.9309 46.8368 45.593 46.5001 45.593 46.0848C45.593 46.0618 45.593 46.04 45.5942 46.0169M53.3588 38.336C54.7913 38.3384 56.133 38.7307 57.2834 39.4113M7.70035 42.4653H6.41797C5.2143 42.4653 4.23828 41.4893 4.23828 40.2844V37.2667C4.23828 36.0618 5.2143 35.0858 6.41797 35.0858H8.25617M16.2117 15.6424V18.4569C16.2117 18.6538 16.1334 18.8427 15.9941 18.982C15.8549 19.1213 15.666 19.1995 15.469 19.1995H11.2465C11.0495 19.1995 10.8606 19.1213 10.7213 18.982C10.582 18.8427 10.5038 18.6538 10.5038 18.4569V15.6424M23.6565 25.8998H1.52699C1.36288 25.8998 1.20549 25.965 1.08944 26.081C0.973397 26.197 0.908203 26.3544 0.908203 26.5186V28.9206C0.908203 29.0847 0.973397 29.2421 1.08944 29.3581C1.20549 29.4742 1.36288 29.5394 1.52699 29.5394H23.6565" stroke="#024F7C" stroke-width="2" stroke-miterlimit="10" stroke-linecap="round" stroke-linejoin="round"/>
<path d="M23.6565 29.5395V8.40269C23.6565 8.23858 23.7217 8.08119 23.8378 7.96514C23.9538 7.8491 24.1112 7.78391 24.2753 7.78391H26.76C26.9241 7.78391 27.0815 7.8491 27.1976 7.96514C27.3136 8.08119 27.3788 8.23858 27.3788 8.40269V29.5396M29.8457 29.5395H35.2539C35.4116 29.5395 35.5627 29.4768 35.6742 29.3653C35.7857 29.2539 35.8483 29.1027 35.8484 28.945V27.4495C35.8484 25.8546 34.5554 24.5616 32.9604 24.5616H27.3791M23.6565 15.6424V25.8998H3.05896V15.6424M23.6565 11.8491H12.494" stroke="#024F7C" stroke-width="2" stroke-miterlimit="10" stroke-linecap="round" stroke-linejoin="round"/>
<path d="M8.2557 11.8492H3.67787C3.5966 11.8492 3.51613 11.8652 3.44104 11.8963C3.36596 11.9274 3.29774 11.973 3.24028 12.0304C3.18282 12.0879 3.13724 12.1561 3.10615 12.2312C3.07506 12.3063 3.05907 12.3868 3.05908 12.4681V15.6424H23.6566M46.4211 22.6301L46.4213 38.3104C46.4213 40.3497 44.7684 42.0026 42.7292 42.0026H31.6878C30.2795 42.0026 29.1388 40.8607 29.1388 39.4523V38.2039C29.1388 35.8135 31.0751 33.876 33.4655 33.876C34.4463 33.876 35.2419 33.0804 35.2419 32.0995V29.5396H13.1738C10.4577 29.5396 8.25618 31.7411 8.25618 34.4572V41.0193" stroke="#024F7C" stroke-width="2" stroke-miterlimit="10" stroke-linecap="round" stroke-linejoin="round"/>
<path d="M50.071 22.6301L52.752 28.3603C53.211 29.3411 53.4495 30.4116 53.4495 31.4942V37.0572C53.4495 42.0487 49.4026 46.0945 44.4123 46.0945H27.0753M23.7876 46.8368C23.8167 47.0899 23.8324 47.3478 23.8324 47.6093C23.8324 51.2579 20.8741 54.2162 17.2255 54.2162C13.577 54.2162 10.6187 51.2579 10.6187 47.6093C10.6187 47.3478 10.6344 47.0899 10.6635 46.8368" stroke="#024F7C" stroke-width="2" stroke-miterlimit="10" stroke-linecap="round" stroke-linejoin="round"/>
<path d="M19.7904 46.8368C19.8642 47.0814 19.9042 47.3405 19.9042 47.6093C19.9042 49.0879 18.7042 50.2867 17.2256 50.2867C15.747 50.2867 14.5482 49.0879 14.5482 47.6093C14.5482 47.3405 14.5882 47.0814 14.662 46.8368" stroke="#024F7C" stroke-width="2" stroke-miterlimit="10" stroke-linecap="round" stroke-linejoin="round"/>
<path d="M49.428 19.0112H42.7934M15.0682 43.5411H19.383M16.0689 36.1497H18.3824C23.1875 36.1497 27.0828 40.0451 27.0828 44.8502V45.9924C27.0828 46.2164 26.9938 46.4312 26.8354 46.5896C26.677 46.748 26.4622 46.837 26.2382 46.837H8.21304C7.98903 46.837 7.77419 46.748 7.61579 46.5896C7.4574 46.4312 7.36841 46.2164 7.36841 45.9924V44.8502C7.36841 40.0451 11.2638 36.1497 16.0689 36.1497ZM51.9505 15.3921H48.5069C47.3548 15.3921 46.4208 16.3261 46.4208 17.4782L46.421 22.6301L51.9505 22.6302C53.6539 22.6302 55.0348 21.2494 55.0348 19.546V18.4763C55.0348 16.773 53.6539 15.3921 51.9505 15.3921Z" stroke="#024F7C" stroke-width="2" stroke-miterlimit="10" stroke-linecap="round" stroke-linejoin="round"/>
</g>
<defs>
<clipPath id="clip0_119_5088">
<rect width="62" height="62" fill="white"/>
</clipPath>
</defs>
</svg>
