<svg width="19" height="19" viewBox="0 0 19 19" fill="none" xmlns="http://www.w3.org/2000/svg">
<g clip-path="url(#clip0_974_10503)">
<path d="M18.425 2.375H4.7688C4.44135 2.375 4.17505 2.6413 4.17505 2.96875V11.4555C3.81568 11.5473 3.45004 11.6926 3.10237 11.9149C3.06629 11.9382 3.02611 11.9526 2.98755 11.9708V11.875C2.98755 11.7963 2.95627 11.7208 2.9006 11.6651C2.84492 11.6094 2.76941 11.5781 2.69067 11.5781H0.315674C0.236938 11.5781 0.161426 11.6094 0.105752 11.6651C0.0500766 11.7208 0.0187988 11.7963 0.0187988 11.875V16.0312C0.0187988 16.11 0.0500766 16.1855 0.105752 16.2412C0.161426 16.2968 0.236938 16.3281 0.315674 16.3281H2.69067C2.76941 16.3281 2.84492 16.2968 2.9006 16.2412C2.95627 16.1855 2.98755 16.11 2.98755 16.0312V15.6167H3.32009C3.91818 15.6167 4.51961 15.6767 5.10757 15.7948L7.90773 16.362C8.39015 16.4589 8.87766 16.5076 9.36312 16.5076C9.55042 16.5076 9.73756 16.5003 9.92381 16.4857L16.2173 16.0166C16.3436 16.0074 16.465 15.9644 16.569 15.8923C16.673 15.8201 16.7557 15.7214 16.8085 15.6063C16.8615 15.4911 16.8826 15.3637 16.8696 15.2375C16.8566 15.1113 16.81 14.9909 16.7347 14.8888C16.7233 14.8733 16.7083 14.859 16.696 14.8437H18.425C18.7525 14.8437 19.0188 14.5774 19.0188 14.25V2.96875C19.0188 2.6413 18.7525 2.375 18.425 2.375ZM10.4094 2.96875H12.7844V6.09277L11.7072 5.66181C11.6364 5.63368 11.5575 5.63368 11.4866 5.66181L10.4095 6.09277V2.96875H10.4094ZM2.3938 15.7344H0.612549V12.1719H2.3938V15.7344ZM18.425 14.25H15.8105C15.5896 14.1736 15.3645 14.1323 15.1594 14.1323H13.675C13.5963 14.1323 13.5208 14.1636 13.4651 14.2192C13.4095 14.2749 13.3782 14.3504 13.3782 14.4292C13.3782 14.5079 13.4095 14.5834 13.4651 14.6391C13.5208 14.6948 13.5963 14.726 13.675 14.726H15.1594C15.3208 14.726 15.5117 14.7691 15.6932 14.8414V14.8438H15.699C15.7236 14.8536 15.7485 14.8622 15.7726 14.8732C15.9831 14.9719 16.1547 15.1024 16.2566 15.2409C16.2923 15.2892 16.2796 15.3353 16.2689 15.3586C16.2585 15.3814 16.2323 15.4202 16.1735 15.4246L9.87872 15.8937C9.26367 15.9417 8.6396 15.9034 8.02515 15.7801L5.22513 15.2128C4.59794 15.0868 3.95981 15.0232 3.32009 15.023H2.98755V12.606C3.14114 12.564 3.28929 12.5011 3.42358 12.4143C4.37685 11.8052 5.51967 11.8781 6.11401 11.9756C6.35248 12.0168 6.59818 12.0122 6.84258 11.9625C6.92912 11.9452 7.01202 11.9213 7.09582 11.8933L8.73297 11.3437C9.02855 11.2431 9.35834 11.266 9.63825 11.4083L9.70769 11.4431C9.80888 11.4946 9.84904 11.575 9.86495 11.6335C9.87636 11.6759 9.87879 11.7202 9.8721 11.7636C9.86541 11.807 9.84974 11.8485 9.8261 11.8855C9.79753 11.9327 9.75274 11.9692 9.69128 11.9946L8.08827 12.6713C8.08634 12.6721 8.08434 12.6717 8.08241 12.6726L7.99631 12.7101C7.8875 12.7557 7.79472 12.8327 7.72975 12.9312C7.66478 13.0297 7.63057 13.1453 7.63145 13.2633C7.6326 13.5058 7.77815 13.7217 8.0037 13.8141L9.23513 14.3097C9.91746 14.586 10.712 14.7262 11.597 14.7262H12.4876C12.5663 14.7262 12.6418 14.6949 12.6975 14.6392C12.7532 14.5836 12.7845 14.508 12.7845 14.4293C12.7845 14.3506 12.7532 14.2751 12.6975 14.2194C12.6418 14.1637 12.5663 14.1324 12.4876 14.1324H11.597C10.8001 14.1324 10.0606 14.0034 9.45753 13.7592L8.22988 13.256L8.31861 13.2175L8.31902 13.2184L9.92066 12.5423C10.0968 12.4691 10.2397 12.3485 10.3302 12.1992C10.4657 11.987 10.505 11.7238 10.4378 11.4773C10.3707 11.231 10.2071 11.031 9.97528 10.9132L9.9057 10.8782C9.48518 10.6644 8.98769 10.6293 8.54253 10.7814L6.90741 11.3304C6.84796 11.3502 6.78855 11.3678 6.7255 11.3804C6.55198 11.4156 6.3802 11.419 6.21235 11.3903C5.86126 11.3328 5.34247 11.2844 4.76887 11.3487V2.96875H9.81575V6.53125C9.81578 6.57976 9.8277 6.62753 9.85045 6.67037C9.8732 6.71322 9.9061 6.74984 9.94627 6.77704C9.98644 6.80424 10.0327 6.82119 10.0809 6.8264C10.1291 6.83162 10.1779 6.82495 10.2229 6.80697L11.597 6.25731L12.971 6.80697C13.0161 6.82492 13.0649 6.83158 13.1131 6.82637C13.1613 6.82117 13.2076 6.80425 13.2478 6.7771C13.288 6.74991 13.3209 6.71328 13.3436 6.67042C13.3664 6.62756 13.3783 6.57977 13.3782 6.53125V2.96875H18.4251V14.25H18.425Z" fill="#024F7C"/>
</g>
<defs>
<clipPath id="clip0_974_10503">
<rect width="19" height="19" fill="white"/>
</clipPath>
</defs>
</svg>
