<svg width="10" height="10" viewBox="0 0 10 10" fill="none" xmlns="http://www.w3.org/2000/svg">
<path d="M8.6 2.29999H1.4C0.902944 2.29999 0.5 2.70293 0.5 3.19999V7.69999C0.5 8.19704 0.902944 8.59999 1.4 8.59999H8.6C9.09706 8.59999 9.5 8.19704 9.5 7.69999V3.19999C9.5 2.70293 9.09706 2.29999 8.6 2.29999Z" stroke="black" stroke-opacity="0.5" stroke-linecap="round" stroke-linejoin="round"/>
<path d="M6.79995 8.6V1.4C6.79995 1.16131 6.70513 0.932387 6.53635 0.763604C6.36756 0.594821 6.13865 0.5 5.89995 0.5H4.09995C3.86126 0.5 3.63234 0.594821 3.46356 0.763604C3.29477 0.932387 3.19995 1.16131 3.19995 1.4V8.6" stroke="black" stroke-opacity="0.5" stroke-linecap="round" stroke-linejoin="round"/>
</svg>
