<svg width="16" height="16" viewBox="0 0 16 16" fill="none" xmlns="http://www.w3.org/2000/svg">
<path d="M11.1514 3.33301H13.252C13.9807 3.33309 14.5771 3.93371 14.5771 4.66699V12.667C14.577 13.4001 13.9806 13.9999 13.252 14H2.65039C1.92165 14 1.32537 13.4002 1.3252 12.667V4.66699C1.3252 3.93366 1.92154 3.33301 2.65039 3.33301H4.75098L5.96289 2H9.93848L11.1514 3.33301ZM5.33398 4.66699H2.65039V12.667H13.252V4.66699H10.5684L9.35547 3.33301H6.54688L5.33398 4.66699ZM7.95117 5.33301C9.77988 5.33305 11.2637 6.82702 11.2637 8.66699C11.2635 10.5068 9.77977 12 7.95117 12C6.12253 12 4.63787 10.5068 4.6377 8.66699C4.6377 6.82699 6.12243 5.33301 7.95117 5.33301ZM7.95117 6.66699C6.8579 6.66699 5.96289 7.56699 5.96289 8.66699C5.96307 9.76684 6.85801 10.667 7.95117 10.667C9.0443 10.6669 9.9383 9.76682 9.93848 8.66699C9.93848 7.56702 9.04441 6.66704 7.95117 6.66699Z" fill="#004448"/>
</svg>
