<svg width="22" height="22" viewBox="0 0 22 22" fill="none" xmlns="http://www.w3.org/2000/svg">
<g clip-path="url(#clip0_974_10872)">
<path d="M4.5332 4.27539H11.4082C11.788 4.27588 12.1631 4.35914 12.5068 4.52051C12.8078 4.66184 13.079 4.85964 13.3047 5.10254L13.3984 5.20996L16.084 8.41113L16.1152 8.44824L16.1621 8.45996L19.8789 9.40527H19.8799C20.4419 9.54561 20.9409 9.86988 21.2979 10.3262C21.6547 10.7824 21.8487 11.3446 21.8496 11.9238V14.4375C21.8496 15.1068 21.2943 15.6621 20.625 15.6621H19.7139L19.6855 15.7744C19.3953 16.8932 18.3892 17.7246 17.1875 17.7246C15.9858 17.7246 14.9807 16.8932 14.6904 15.7744L14.6611 15.6621H8.02637L7.99805 15.7744C7.70777 16.8932 6.70172 17.7246 5.5 17.7246C4.90351 17.7229 4.32546 17.5168 3.86328 17.1396C3.40105 16.7625 3.08317 16.2375 2.96191 15.6533L2.94238 15.5615L2.85156 15.5381L1.06836 15.0869C0.805113 15.02 0.571634 14.867 0.405273 14.6523C0.238935 14.4375 0.149302 14.173 0.150391 13.9014V9.3457L0.155273 9.20508C0.178795 8.87912 0.286413 8.56414 0.46875 8.29102L2.38086 5.43262C2.8642 4.70876 3.66567 4.27545 4.5332 4.27539ZM5.5 13.5996C4.64923 13.5996 3.97461 14.2742 3.97461 15.125C3.97461 15.9758 4.64923 16.6504 5.5 16.6504C6.35078 16.6504 7.02539 15.9758 7.02539 15.125C7.02539 14.2742 6.35078 13.5996 5.5 13.5996ZM17.1875 13.5996C16.3367 13.5996 15.6621 14.2742 15.6621 15.125C15.6621 15.9758 16.3367 16.6504 17.1875 16.6504C18.0383 16.6504 18.7129 15.9758 18.7129 15.125C18.7129 14.2742 18.0383 13.5996 17.1875 13.5996ZM1.22461 14.0176L1.33789 14.0469L2.86426 14.4326L3 14.4668L3.04297 14.333C3.38088 13.2854 4.34964 12.5254 5.5 12.5254C6.70172 12.5254 7.70777 13.3568 7.99805 14.4756L8.02637 14.5879H14.6611L14.6904 14.4756C14.9807 13.3568 15.9858 12.5254 17.1875 12.5254C18.3892 12.5254 19.3953 13.3568 19.6855 14.4756L19.7139 14.5879H20.7754V11.9238C20.7785 11.5852 20.6672 11.2552 20.46 10.9873C20.2522 10.7188 19.9594 10.5281 19.6299 10.4463L15.7627 9.47949L15.7451 9.47461H1.22461V14.0176ZM4.5332 5.34961C4.28419 5.34705 4.03769 5.407 3.81738 5.52344C3.59653 5.6402 3.40781 5.81049 3.26953 6.01855L3.24512 6.05664V6.07715L1.85156 8.16699L1.69629 8.40039H7.71289V5.34961H4.5332ZM8.78711 8.40039H14.6729L14.4668 8.15332L12.5762 5.89844C12.2871 5.54994 11.8604 5.34961 11.4082 5.34961H8.78711V8.40039Z" fill="#024F7C" stroke="#E9F6FD" stroke-width="0.3"/>
</g>
<defs>
<clipPath id="clip0_974_10872">
<rect width="22" height="22" fill="white"/>
</clipPath>
</defs>
</svg>
