<svg width="20" height="20" viewBox="0 0 20 20" fill="none" xmlns="http://www.w3.org/2000/svg">
<path d="M3 19.4167C2.45 19.4167 1.97917 19.2209 1.5875 18.8292C1.19583 18.4376 1 17.9667 1 17.4167V3.41675C1 2.86675 1.19583 2.39591 1.5875 2.00425C1.97917 1.61258 2.45 1.41675 3 1.41675H17C17.55 1.41675 18.0208 1.61258 18.4125 2.00425C18.8042 2.39591 19 2.86675 19 3.41675V17.4167C19 17.9667 18.8042 18.4376 18.4125 18.8292C18.0208 19.2209 17.55 19.4167 17 19.4167H3ZM5 15.4167H12V13.4167H5V15.4167ZM5 11.4167H15V9.41675H5V11.4167ZM5 7.41675H15V5.41675H5V7.41675Z" fill="#024F7C"/>
</svg>
