<svg width="9" height="15" viewBox="0 0 9 15" fill="none" xmlns="http://www.w3.org/2000/svg">
<path d="M9 9.81383C9 7.56383 7.1134 6.9734 5.39691 6.55851V3.84574C6.1701 3.94149 6.97423 4.21277 7.76289 4.67553L8.53608 2.71277C7.68557 2.15425 6.5567 1.83511 5.39691 1.73936V0H3.85052V1.77128C1.40722 2.05851 0.216495 3.51064 0.216495 5.20213C0.216495 7.48404 2.13402 8.07447 3.85052 8.50532V11.1702C2.73711 11.0585 1.62371 10.6277 0.850516 10.0372L0 11.984C0.850516 12.6702 2.31959 13.1649 3.85052 13.2606V15H5.39691V13.2128C7.82474 12.9096 9 11.4734 9 9.81383ZM2.70619 5.07447C2.70619 4.54787 3.03093 4.08511 3.85052 3.89362V6.15957C3.1701 5.93617 2.70619 5.63298 2.70619 5.07447ZM5.39691 11.1064V8.90425C6.06186 9.14362 6.51031 9.44681 6.51031 10.0053C6.51031 10.516 6.1701 10.9309 5.39691 11.1064Z" fill="#111111"/>
</svg>
