<svg width="16" height="16" viewBox="0 0 16 16" fill="none" xmlns="http://www.w3.org/2000/svg">
<g clip-path="url(#clip0_974_11030)">
<path d="M6.7752 16.75V14.6C5.89186 14.4 5.12936 14.0167 4.4877 13.45C3.84603 12.8833 3.3752 12.0833 3.0752 11.05L4.9252 10.3C5.1752 11.1 5.54603 11.7083 6.0377 12.125C6.52936 12.5417 7.1752 12.75 7.9752 12.75C8.65853 12.75 9.2377 12.5958 9.7127 12.2875C10.1877 11.9792 10.4252 11.5 10.4252 10.85C10.4252 10.2667 10.2419 9.80417 9.8752 9.4625C9.50853 9.12083 8.65853 8.73333 7.3252 8.3C5.89186 7.85 4.90853 7.3125 4.3752 6.6875C3.84186 6.0625 3.5752 5.3 3.5752 4.4C3.5752 3.31667 3.9252 2.475 4.6252 1.875C5.3252 1.275 6.04186 0.933333 6.7752 0.85V-1.25H8.7752V0.85C9.60853 0.983334 10.296 1.2875 10.8377 1.7625C11.3794 2.2375 11.7752 2.81667 12.0252 3.5L10.1752 4.3C9.9752 3.76667 9.69186 3.36667 9.3252 3.1C8.95853 2.83333 8.45853 2.7 7.8252 2.7C7.09186 2.7 6.53353 2.8625 6.1502 3.1875C5.76686 3.5125 5.5752 3.91667 5.5752 4.4C5.5752 4.95 5.8252 5.38333 6.3252 5.7C6.8252 6.01667 7.69186 6.35 8.9252 6.7C10.0752 7.03333 10.946 7.5625 11.5377 8.2875C12.1294 9.0125 12.4252 9.85 12.4252 10.8C12.4252 11.9833 12.0752 12.8833 11.3752 13.5C10.6752 14.1167 9.80853 14.5 8.7752 14.65V16.75H6.7752Z" fill="#1C1B1F"/>
</g>
<defs>
<clipPath id="clip0_974_11030">
<rect width="16" height="16" fill="white"/>
</clipPath>
</defs>
</svg>
