<svg width="20" height="20" viewBox="0 0 20 20" fill="none" xmlns="http://www.w3.org/2000/svg">
<path d="M10.4165 0C5.59161 0 1.6665 3.9251 1.6665 8.75C1.6665 13.5749 5.59161 17.5 10.4165 17.5C15.2414 17.5 19.1665 13.5749 19.1665 8.75C19.1665 3.9251 15.2414 0 10.4165 0ZM10.4165 13.8542C10.014 13.8542 9.68734 13.5275 9.68734 13.125C9.68734 12.7225 10.014 12.3958 10.4165 12.3958C10.819 12.3958 11.1457 12.7225 11.1457 13.125C11.1457 13.5275 10.819 13.8542 10.4165 13.8542ZM11.5708 9.21813C11.3126 9.33698 11.1457 9.59729 11.1457 9.88094V10.2083C11.1457 10.6108 10.8197 10.9375 10.4165 10.9375C10.0133 10.9375 9.68734 10.6108 9.68734 10.2083V9.88094C9.68734 9.03 10.1875 8.24979 10.9597 7.89323C11.7028 7.55125 12.2394 6.64344 12.2394 6.19792C12.2394 5.19313 11.422 4.375 10.4165 4.375C9.41098 4.375 8.59359 5.19313 8.59359 6.19792C8.59359 6.60042 8.26765 6.92708 7.86442 6.92708C7.46119 6.92708 7.13525 6.60042 7.13525 6.19792C7.13525 4.38885 8.60744 2.91667 10.4165 2.91667C12.2256 2.91667 13.6978 4.38885 13.6978 6.19792C13.6978 7.18302 12.8432 8.63115 11.5708 9.21813Z" fill="#024F7C"/>
</svg>
