<svg width="100" height="100" viewBox="0 0 100 100" fill="none" xmlns="http://www.w3.org/2000/svg">
<g clip-path="url(#clip0_125_5559)">
<path d="M50 87.5C70.7107 87.5 87.5 70.7107 87.5 50C87.5 29.2893 70.7107 12.5 50 12.5C29.2893 12.5 12.5 29.2893 12.5 50C12.5 70.7107 29.2893 87.5 50 87.5Z" fill="#4D2161"/>
<mask id="mask0_125_5559" style="mask-type:alpha" maskUnits="userSpaceOnUse" x="32" y="32" width="35" height="35">
<rect x="32" y="32" width="35" height="35" fill="#D9D9D9"/>
</mask>
<g mask="url(#mask0_125_5559)">
<path d="M49.5 33.4584L62.6979 41.3334C63.1354 41.6007 63.4757 41.9653 63.7187 42.4271C63.9618 42.8889 64.0833 43.375 64.0833 43.8855V59.7084C64.0833 60.5105 63.7977 61.1971 63.2265 61.7683C62.6553 62.3394 61.9687 62.625 61.1666 62.625H37.8333C37.0312 62.625 36.3446 62.3394 35.7734 61.7683C35.2022 61.1971 34.9166 60.5105 34.9166 59.7084V43.8855C34.9166 43.375 35.0382 42.8889 35.2812 42.4271C35.5243 41.9653 35.8645 41.6007 36.302 41.3334L49.5 33.4584ZM49.5 50.448L60.875 43.6667L49.5 36.8855L38.125 43.6667L49.5 50.448ZM49.5 53.875L37.8333 46.875V59.7084H61.1666V46.875L49.5 53.875Z" fill="white"/>
</g>
</g>
<defs>
<clipPath id="clip0_125_5559">
<rect width="100" height="100" fill="white"/>
</clipPath>
</defs>
</svg>
