<svg width="17" height="17" viewBox="0 0 17 17" fill="none" xmlns="http://www.w3.org/2000/svg">
<g clip-path="url(#clip0_974_11135)">
<path d="M11.0196 13.1868L9.37123 11.5374C8.7338 11.7653 8.04475 11.8075 7.38426 11.6591C6.72377 11.5107 6.11901 11.1778 5.64033 10.6991C5.16165 10.2204 4.82874 9.61566 4.68034 8.95518C4.53193 8.29469 4.57414 7.60564 4.80204 6.9682L2.69821 4.86437C0.957957 6.41161 0 8.17024 0 8.17024C0 8.17024 3.06383 13.7873 8.17021 13.7873C9.15105 13.7839 10.1208 13.5795 11.0196 13.1868ZM5.32085 3.15373C6.21963 2.76098 7.18937 2.5566 8.17021 2.55322C13.2766 2.55322 16.3404 8.17024 16.3404 8.17024C16.3404 8.17024 15.3814 9.92786 13.6432 11.4771L11.5374 9.37126C11.7653 8.73383 11.8075 8.04478 11.6591 7.38429C11.5107 6.7238 11.1778 6.11904 10.6991 5.64036C10.2204 5.16168 9.61563 4.82877 8.95514 4.68037C8.29466 4.53197 7.60561 4.57417 6.96817 4.80207L5.32085 3.15475V3.15373Z" fill="#111111" fill-opacity="0.7"/>
<path d="M5.64246 7.80863C5.58628 8.20112 5.62228 8.60129 5.74761 8.97745C5.87294 9.35361 6.08415 9.69541 6.36451 9.97577C6.64487 10.2561 6.98667 10.4673 7.36283 10.5927C7.73899 10.718 8.13916 10.754 8.53165 10.6978L5.64144 7.80863H5.64246ZM10.6978 8.53169L7.80859 5.64148C8.20107 5.5853 8.60125 5.62131 8.97741 5.74664C9.35356 5.87196 9.69536 6.08318 9.97572 6.36354C10.2561 6.64389 10.4673 6.98569 10.5926 7.36185C10.718 7.73801 10.754 8.13819 10.6978 8.53067V8.53169Z" fill="#111111" fill-opacity="0.7"/>
<path fill-rule="evenodd" clip-rule="evenodd" d="M13.9365 14.6594L1.68115 2.40409L2.40422 1.68103L14.6595 13.9363L13.9365 14.6594Z" fill="#111111" fill-opacity="0.7"/>
</g>
<defs>
<clipPath id="clip0_974_11135">
<rect width="16.3404" height="16.3404" fill="white"/>
</clipPath>
</defs>
</svg>
