<svg width="20" height="20" viewBox="0 0 20 20" fill="none" xmlns="http://www.w3.org/2000/svg">
<g clip-path="url(#clip0_974_12993)">
<path d="M0 8.19645V19.3751C0 19.7203 0.279805 20.0001 0.625 20.0001H19.375C19.7202 20.0001 20 19.7203 20 19.3751V8.19645C20 8.03087 19.8069 7.9404 19.6796 8.04642L10.4 15.7798C10.1686 15.9729 9.83172 15.9732 9.6 15.7798L0.320352 8.04638C0.193125 7.94036 0 8.03083 0 8.19645H0Z" fill="#024F7C"/>
<path d="M9.99999 8.37961C10.9082 7.95149 12.6348 6.86789 12.6348 5.56125C12.6348 4.45367 11.2029 3.95262 10.4754 4.80461C10.226 5.09656 9.77402 5.09668 9.5246 4.80461C8.79687 3.95234 7.36523 4.45418 7.36523 5.56125C7.36523 6.8675 9.09101 7.9511 9.99999 8.37961Z" fill="#024F7C"/>
<path d="M16.25 9.19914V0.625C16.25 0.279805 15.9702 0 15.625 0H4.375C4.0298 0 3.75 0.279805 3.75 0.625V9.18641C3.75 9.2443 3.77566 9.29918 3.82008 9.33629L9.87492 14.3943C9.94734 14.4548 10.0527 14.4549 10.1252 14.3945L16.1797 9.34918C16.2243 9.31207 16.25 9.25711 16.25 9.19914ZM10 3.56367C11.6167 2.44844 13.8848 3.58145 13.8848 5.56094C13.8848 8.125 10.3848 9.58047 10.2359 9.64141C10.0886 9.70141 9.91855 9.70434 9.76406 9.64141C9.61523 9.58047 6.11523 8.125 6.11523 5.56094C6.11523 3.58121 8.38352 2.44859 10 3.56367Z" fill="#024F7C"/>
<path d="M17.5 5.53418V7.8252C17.5 7.99079 17.6931 8.08125 17.8204 7.97524L19.195 6.82973C19.2887 6.75165 19.2887 6.60774 19.195 6.52965L17.8204 5.38415C17.6931 5.27813 17.5 5.3686 17.5 5.53418Z" fill="#024F7C"/>
<path d="M2.50011 5.53418V7.8252C2.50011 7.99079 2.30698 8.08125 2.17976 7.97524L0.805146 6.82973C0.711436 6.75165 0.711436 6.60774 0.805146 6.52965L2.17976 5.38415C2.30698 5.27813 2.50011 5.3686 2.50011 5.53418Z" fill="#024F7C"/>
</g>
<defs>
<clipPath id="clip0_974_12993">
<rect width="20" height="20" fill="white"/>
</clipPath>
</defs>
</svg>
