<svg width="11" height="13" viewBox="0 0 11 13" fill="none" xmlns="http://www.w3.org/2000/svg">
<path d="M5.16667 6.45833C5.52188 6.45833 5.82596 6.33186 6.07891 6.07891C6.33186 5.82596 6.45833 5.52188 6.45833 5.16667C6.45833 4.81146 6.33186 4.50738 6.07891 4.25443C5.82596 4.00148 5.52188 3.875 5.16667 3.875C4.81146 3.875 4.50738 4.00148 4.25443 4.25443C4.00148 4.50738 3.875 4.81146 3.875 5.16667C3.875 5.52188 4.00148 5.82596 4.25443 6.07891C4.50738 6.33186 4.81146 6.45833 5.16667 6.45833ZM5.16667 11.2052C6.47986 9.99965 7.45399 8.90443 8.08906 7.91953C8.72413 6.93464 9.04167 6.06007 9.04167 5.29583C9.04167 4.12257 8.66762 3.16189 7.91953 2.4138C7.17144 1.66571 6.25382 1.29167 5.16667 1.29167C4.07951 1.29167 3.16189 1.66571 2.4138 2.4138C1.66571 3.16189 1.29167 4.12257 1.29167 5.29583C1.29167 6.06007 1.6092 6.93464 2.24427 7.91953C2.87934 8.90443 3.85347 9.99965 5.16667 11.2052ZM5.16667 12.9167C3.43368 11.442 2.13932 10.0723 1.28359 8.80755C0.427865 7.5428 0 6.37222 0 5.29583C0 3.68125 0.519358 2.39497 1.55807 1.43698C2.59679 0.478993 3.79965 0 5.16667 0C6.53368 0 7.73655 0.478993 8.77526 1.43698C9.81398 2.39497 10.3333 3.68125 10.3333 5.29583C10.3333 6.37222 9.90547 7.5428 9.04974 8.80755C8.19401 10.0723 6.89965 11.442 5.16667 12.9167Z" fill="#024F7C"/>
</svg>
