<svg width="11" height="11" viewBox="0 0 11 11" fill="none" xmlns="http://www.w3.org/2000/svg">
<mask id="mask0_974_10508" style="mask-type:alpha" maskUnits="userSpaceOnUse" x="0" y="0" width="11" height="11">
<rect width="11" height="11" fill="#D9D9D9"/>
</mask>
<g mask="url(#mask0_974_10508)">
<path d="M5.49992 5.49999C5.752 5.49999 5.9678 5.41023 6.14731 5.23072C6.32683 5.05121 6.41659 4.83541 6.41659 4.58332C6.41659 4.33124 6.32683 4.11544 6.14731 3.93593C5.9678 3.75641 5.752 3.66666 5.49992 3.66666C5.24784 3.66666 5.03204 3.75641 4.85252 3.93593C4.67301 4.11544 4.58325 4.33124 4.58325 4.58332C4.58325 4.83541 4.67301 5.05121 4.85252 5.23072C5.03204 5.41023 5.24784 5.49999 5.49992 5.49999ZM5.49992 8.86874C6.43186 8.01318 7.12318 7.23593 7.57388 6.53697C8.02457 5.83801 8.24992 5.21735 8.24992 4.67499C8.24992 3.84235 7.98447 3.16058 7.45356 2.62968C6.92266 2.09877 6.27145 1.83332 5.49992 1.83332C4.72839 1.83332 4.07718 2.09877 3.54627 2.62968C3.01537 3.16058 2.74992 3.84235 2.74992 4.67499C2.74992 5.21735 2.97527 5.83801 3.42596 6.53697C3.87665 7.23593 4.56797 8.01318 5.49992 8.86874ZM5.49992 10.0833C4.27006 9.0368 3.35148 8.06475 2.74419 7.16718C2.1369 6.26961 1.83325 5.43888 1.83325 4.67499C1.83325 3.52916 2.20183 2.61631 2.93898 1.93645C3.67613 1.25659 4.52978 0.916656 5.49992 0.916656C6.47006 0.916656 7.3237 1.25659 8.06086 1.93645C8.79801 2.61631 9.16659 3.52916 9.16659 4.67499C9.16659 5.43888 8.86294 6.26961 8.25565 7.16718C7.64836 8.06475 6.72978 9.0368 5.49992 10.0833Z" fill="#024F7C"/>
</g>
</svg>
