<svg width="34" height="26" viewBox="0 0 34 26" fill="none" xmlns="http://www.w3.org/2000/svg">
<path d="M0.470558 14.1501L11.8045 25.5232C12.8164 26.5387 14.5705 25.8279 14.5705 24.3724V17.8735H23.7455C24.6428 17.8735 25.3647 17.1491 25.3647 16.2487V9.74982C25.3647 8.84945 24.6428 8.12509 23.7455 8.12509H14.5705V1.62617C14.5705 0.177452 12.8232 -0.540137 11.8045 0.475319L0.470558 11.8484C-0.156853 12.4848 -0.156853 13.5138 0.470558 14.1501ZM21.047 25.1848V22.4769C21.047 22.0301 21.4113 21.6645 21.8565 21.6645H27.5235C28.7176 21.6645 29.6823 20.6964 29.6823 19.4982V6.50036C29.6823 5.30212 28.7176 4.33405 27.5235 4.33405H21.8565C21.4113 4.33405 21.047 3.96849 21.047 3.52169V0.813805C21.047 0.367004 21.4113 0.00143982 21.8565 0.00143982H27.5235C31.0991 0.00143982 34 2.91241 34 6.50036V19.4982C34 23.0861 31.0991 25.9971 27.5235 25.9971H21.8565C21.4113 25.9971 21.047 25.6316 21.047 25.1848Z" fill="white"/>
</svg>
