<svg width="55" height="55" viewBox="0 0 55 55" fill="none" xmlns="http://www.w3.org/2000/svg">
<g clip-path="url(#clip0_119_5081)">
<mask id="path-1-outside-1_119_5081" maskUnits="userSpaceOnUse" x="-0.945801" y="5.875" width="57" height="43" fill="black">
<rect fill="white" x="-0.945801" y="5.875" width="57" height="43"/>
<path d="M53.3354 6.875H13.8042C12.8563 6.875 12.0854 7.64586 12.0854 8.59375V33.1606C11.0452 33.4263 9.98675 33.847 8.98031 34.4904C8.8759 34.5579 8.75956 34.5996 8.64795 34.6524V34.375C8.64795 34.1471 8.55741 33.9285 8.39625 33.7673C8.23508 33.6062 8.01649 33.5156 7.78857 33.5156H0.913574C0.685654 33.5156 0.467068 33.6062 0.305904 33.7673C0.14474 33.9285 0.0541992 34.1471 0.0541992 34.375V46.4062C0.0541992 46.6342 0.14474 46.8528 0.305904 47.0139C0.467068 47.1751 0.685654 47.2656 0.913574 47.2656H7.78857C8.01649 47.2656 8.23508 47.1751 8.39625 47.0139C8.55741 46.8528 8.64795 46.6342 8.64795 46.4062V45.2061H9.61056C11.3419 45.2061 13.0829 45.3798 14.7849 45.7219L22.8906 47.3638C24.2871 47.6441 25.6983 47.7851 27.1036 47.7851C27.6457 47.7851 28.1875 47.7642 28.7266 47.7217L46.9447 46.3638C47.3101 46.3371 47.6616 46.2128 47.9626 46.0039C48.2636 45.7951 48.5031 45.5092 48.6559 45.1763C48.8093 44.8426 48.8703 44.4739 48.8328 44.1086C48.7952 43.7432 48.6604 43.3947 48.4424 43.0992C48.4093 43.0541 48.366 43.0129 48.3304 42.9686H53.3354C54.2833 42.9686 55.0542 42.1978 55.0542 41.2499V8.59375C55.0542 7.64586 54.2834 6.875 53.3354 6.875ZM30.1323 8.59375H37.0073V17.637L33.8892 16.3895C33.6841 16.308 33.4557 16.308 33.2506 16.3895L30.1324 17.637V8.59375H30.1323ZM6.9292 45.5469H1.77295V35.2344H6.9292V45.5469ZM53.3354 41.25H45.7671C45.1274 41.0288 44.4758 40.9093 43.8823 40.9093H39.5854C39.3575 40.9093 39.1389 40.9998 38.9778 41.161C38.8166 41.3221 38.7261 41.5407 38.7261 41.7686C38.7261 41.9966 38.8166 42.2151 38.9778 42.3763C39.1389 42.5375 39.3575 42.628 39.5854 42.628H43.8823C44.3495 42.628 44.902 42.7526 45.4274 42.962V42.9688H45.4442C45.5154 42.9973 45.5876 43.0221 45.6573 43.0539C46.2666 43.3397 46.7634 43.7174 47.0584 44.1185C47.1616 44.2582 47.1251 44.3917 47.094 44.4592C47.0638 44.5251 46.9879 44.6376 46.818 44.6501L28.5961 46.008C26.8157 46.1469 25.0092 46.0362 23.2305 45.6791L15.1252 44.0372C13.3096 43.6723 11.4624 43.4882 9.61056 43.4875H8.64795V36.4911C9.09257 36.3696 9.5214 36.1875 9.91016 35.9361C12.6696 34.1728 15.9778 34.3839 17.6982 34.6663C18.3885 34.7855 19.0998 34.772 19.8073 34.6282C20.0578 34.5782 20.2977 34.5091 20.5403 34.4281L25.2794 32.8369C26.135 32.5457 27.0897 32.612 27.9 33.0241L28.101 33.1248C28.3939 33.2738 28.5101 33.5067 28.5562 33.6758C28.5892 33.7986 28.5963 33.9269 28.5769 34.0525C28.5575 34.1781 28.5122 34.2984 28.4438 34.4055C28.361 34.5419 28.2314 34.6476 28.0535 34.7211L23.4132 36.6801C23.4076 36.6823 23.4018 36.6812 23.3962 36.6837L23.147 36.7924C22.832 36.9245 22.5634 37.1473 22.3754 37.4324C22.1873 37.7175 22.0883 38.0521 22.0908 38.3937C22.0942 39.0957 22.5155 39.7208 23.1684 39.9882L26.7331 41.4228C28.7082 42.2226 31.0081 42.6284 33.5699 42.6284H36.1481C36.376 42.6284 36.5946 42.5379 36.7557 42.3767C36.9169 42.2156 37.0074 41.997 37.0074 41.7691C37.0074 41.5411 36.9169 41.3226 36.7557 41.1614C36.5946 41.0002 36.376 40.9097 36.1481 40.9097H33.5699C31.2633 40.9097 29.1225 40.5362 27.3768 39.8291L23.8231 38.3726L24.08 38.2611L24.0811 38.2639L28.7175 36.3068C29.2273 36.0948 29.6411 35.7457 29.9029 35.3135C30.2952 34.6992 30.4089 33.9373 30.2146 33.2239C30.0203 32.5109 29.5466 31.9319 28.8756 31.5907L28.6742 31.4897C27.4569 30.8707 26.0168 30.7692 24.7281 31.2094L19.9949 32.7985C19.8228 32.8559 19.6508 32.9068 19.4683 32.9433C18.966 33.0452 18.4688 33.0549 17.9829 32.9719C16.9666 32.8054 15.4648 32.6654 13.8044 32.8514V8.59375H28.4138V18.9062C28.4139 19.0467 28.4484 19.1849 28.5142 19.309C28.5801 19.433 28.6753 19.539 28.7916 19.6177C28.9079 19.6965 29.0417 19.7455 29.1813 19.7606C29.3209 19.7757 29.4621 19.7564 29.5925 19.7044L33.57 18.1133L37.5475 19.7044C37.678 19.7563 37.8192 19.7756 37.9588 19.7606C38.0984 19.7455 38.2322 19.6965 38.3486 19.6179C38.4649 19.5392 38.5602 19.4332 38.626 19.3091C38.6919 19.185 38.7263 19.0467 38.7263 18.9062V8.59375H53.3357V41.25H53.3354Z"/>
</mask>
<path d="M53.3354 6.875H13.8042C12.8563 6.875 12.0854 7.64586 12.0854 8.59375V33.1606C11.0452 33.4263 9.98675 33.847 8.98031 34.4904C8.8759 34.5579 8.75956 34.5996 8.64795 34.6524V34.375C8.64795 34.1471 8.55741 33.9285 8.39625 33.7673C8.23508 33.6062 8.01649 33.5156 7.78857 33.5156H0.913574C0.685654 33.5156 0.467068 33.6062 0.305904 33.7673C0.14474 33.9285 0.0541992 34.1471 0.0541992 34.375V46.4062C0.0541992 46.6342 0.14474 46.8528 0.305904 47.0139C0.467068 47.1751 0.685654 47.2656 0.913574 47.2656H7.78857C8.01649 47.2656 8.23508 47.1751 8.39625 47.0139C8.55741 46.8528 8.64795 46.6342 8.64795 46.4062V45.2061H9.61056C11.3419 45.2061 13.0829 45.3798 14.7849 45.7219L22.8906 47.3638C24.2871 47.6441 25.6983 47.7851 27.1036 47.7851C27.6457 47.7851 28.1875 47.7642 28.7266 47.7217L46.9447 46.3638C47.3101 46.3371 47.6616 46.2128 47.9626 46.0039C48.2636 45.7951 48.5031 45.5092 48.6559 45.1763C48.8093 44.8426 48.8703 44.4739 48.8328 44.1086C48.7952 43.7432 48.6604 43.3947 48.4424 43.0992C48.4093 43.0541 48.366 43.0129 48.3304 42.9686H53.3354C54.2833 42.9686 55.0542 42.1978 55.0542 41.2499V8.59375C55.0542 7.64586 54.2834 6.875 53.3354 6.875ZM30.1323 8.59375H37.0073V17.637L33.8892 16.3895C33.6841 16.308 33.4557 16.308 33.2506 16.3895L30.1324 17.637V8.59375H30.1323ZM6.9292 45.5469H1.77295V35.2344H6.9292V45.5469ZM53.3354 41.25H45.7671C45.1274 41.0288 44.4758 40.9093 43.8823 40.9093H39.5854C39.3575 40.9093 39.1389 40.9998 38.9778 41.161C38.8166 41.3221 38.7261 41.5407 38.7261 41.7686C38.7261 41.9966 38.8166 42.2151 38.9778 42.3763C39.1389 42.5375 39.3575 42.628 39.5854 42.628H43.8823C44.3495 42.628 44.902 42.7526 45.4274 42.962V42.9688H45.4442C45.5154 42.9973 45.5876 43.0221 45.6573 43.0539C46.2666 43.3397 46.7634 43.7174 47.0584 44.1185C47.1616 44.2582 47.1251 44.3917 47.094 44.4592C47.0638 44.5251 46.9879 44.6376 46.818 44.6501L28.5961 46.008C26.8157 46.1469 25.0092 46.0362 23.2305 45.6791L15.1252 44.0372C13.3096 43.6723 11.4624 43.4882 9.61056 43.4875H8.64795V36.4911C9.09257 36.3696 9.5214 36.1875 9.91016 35.9361C12.6696 34.1728 15.9778 34.3839 17.6982 34.6663C18.3885 34.7855 19.0998 34.772 19.8073 34.6282C20.0578 34.5782 20.2977 34.5091 20.5403 34.4281L25.2794 32.8369C26.135 32.5457 27.0897 32.612 27.9 33.0241L28.101 33.1248C28.3939 33.2738 28.5101 33.5067 28.5562 33.6758C28.5892 33.7986 28.5963 33.9269 28.5769 34.0525C28.5575 34.1781 28.5122 34.2984 28.4438 34.4055C28.361 34.5419 28.2314 34.6476 28.0535 34.7211L23.4132 36.6801C23.4076 36.6823 23.4018 36.6812 23.3962 36.6837L23.147 36.7924C22.832 36.9245 22.5634 37.1473 22.3754 37.4324C22.1873 37.7175 22.0883 38.0521 22.0908 38.3937C22.0942 39.0957 22.5155 39.7208 23.1684 39.9882L26.7331 41.4228C28.7082 42.2226 31.0081 42.6284 33.5699 42.6284H36.1481C36.376 42.6284 36.5946 42.5379 36.7557 42.3767C36.9169 42.2156 37.0074 41.997 37.0074 41.7691C37.0074 41.5411 36.9169 41.3226 36.7557 41.1614C36.5946 41.0002 36.376 40.9097 36.1481 40.9097H33.5699C31.2633 40.9097 29.1225 40.5362 27.3768 39.8291L23.8231 38.3726L24.08 38.2611L24.0811 38.2639L28.7175 36.3068C29.2273 36.0948 29.6411 35.7457 29.9029 35.3135C30.2952 34.6992 30.4089 33.9373 30.2146 33.2239C30.0203 32.5109 29.5466 31.9319 28.8756 31.5907L28.6742 31.4897C27.4569 30.8707 26.0168 30.7692 24.7281 31.2094L19.9949 32.7985C19.8228 32.8559 19.6508 32.9068 19.4683 32.9433C18.966 33.0452 18.4688 33.0549 17.9829 32.9719C16.9666 32.8054 15.4648 32.6654 13.8044 32.8514V8.59375H28.4138V18.9062C28.4139 19.0467 28.4484 19.1849 28.5142 19.309C28.5801 19.433 28.6753 19.539 28.7916 19.6177C28.9079 19.6965 29.0417 19.7455 29.1813 19.7606C29.3209 19.7757 29.4621 19.7564 29.5925 19.7044L33.57 18.1133L37.5475 19.7044C37.678 19.7563 37.8192 19.7756 37.9588 19.7606C38.0984 19.7455 38.2322 19.6965 38.3486 19.6179C38.4649 19.5392 38.5602 19.4332 38.626 19.3091C38.6919 19.185 38.7263 19.0467 38.7263 18.9062V8.59375H53.3357V41.25H53.3354Z" fill="#024F7C"/>
<path d="M53.3354 6.875H13.8042C12.8563 6.875 12.0854 7.64586 12.0854 8.59375V33.1606C11.0452 33.4263 9.98675 33.847 8.98031 34.4904C8.8759 34.5579 8.75956 34.5996 8.64795 34.6524V34.375C8.64795 34.1471 8.55741 33.9285 8.39625 33.7673C8.23508 33.6062 8.01649 33.5156 7.78857 33.5156H0.913574C0.685654 33.5156 0.467068 33.6062 0.305904 33.7673C0.14474 33.9285 0.0541992 34.1471 0.0541992 34.375V46.4062C0.0541992 46.6342 0.14474 46.8528 0.305904 47.0139C0.467068 47.1751 0.685654 47.2656 0.913574 47.2656H7.78857C8.01649 47.2656 8.23508 47.1751 8.39625 47.0139C8.55741 46.8528 8.64795 46.6342 8.64795 46.4062V45.2061H9.61056C11.3419 45.2061 13.0829 45.3798 14.7849 45.7219L22.8906 47.3638C24.2871 47.6441 25.6983 47.7851 27.1036 47.7851C27.6457 47.7851 28.1875 47.7642 28.7266 47.7217L46.9447 46.3638C47.3101 46.3371 47.6616 46.2128 47.9626 46.0039C48.2636 45.7951 48.5031 45.5092 48.6559 45.1763C48.8093 44.8426 48.8703 44.4739 48.8328 44.1086C48.7952 43.7432 48.6604 43.3947 48.4424 43.0992C48.4093 43.0541 48.366 43.0129 48.3304 42.9686H53.3354C54.2833 42.9686 55.0542 42.1978 55.0542 41.2499V8.59375C55.0542 7.64586 54.2834 6.875 53.3354 6.875ZM30.1323 8.59375H37.0073V17.637L33.8892 16.3895C33.6841 16.308 33.4557 16.308 33.2506 16.3895L30.1324 17.637V8.59375H30.1323ZM6.9292 45.5469H1.77295V35.2344H6.9292V45.5469ZM53.3354 41.25H45.7671C45.1274 41.0288 44.4758 40.9093 43.8823 40.9093H39.5854C39.3575 40.9093 39.1389 40.9998 38.9778 41.161C38.8166 41.3221 38.7261 41.5407 38.7261 41.7686C38.7261 41.9966 38.8166 42.2151 38.9778 42.3763C39.1389 42.5375 39.3575 42.628 39.5854 42.628H43.8823C44.3495 42.628 44.902 42.7526 45.4274 42.962V42.9688H45.4442C45.5154 42.9973 45.5876 43.0221 45.6573 43.0539C46.2666 43.3397 46.7634 43.7174 47.0584 44.1185C47.1616 44.2582 47.1251 44.3917 47.094 44.4592C47.0638 44.5251 46.9879 44.6376 46.818 44.6501L28.5961 46.008C26.8157 46.1469 25.0092 46.0362 23.2305 45.6791L15.1252 44.0372C13.3096 43.6723 11.4624 43.4882 9.61056 43.4875H8.64795V36.4911C9.09257 36.3696 9.5214 36.1875 9.91016 35.9361C12.6696 34.1728 15.9778 34.3839 17.6982 34.6663C18.3885 34.7855 19.0998 34.772 19.8073 34.6282C20.0578 34.5782 20.2977 34.5091 20.5403 34.4281L25.2794 32.8369C26.135 32.5457 27.0897 32.612 27.9 33.0241L28.101 33.1248C28.3939 33.2738 28.5101 33.5067 28.5562 33.6758C28.5892 33.7986 28.5963 33.9269 28.5769 34.0525C28.5575 34.1781 28.5122 34.2984 28.4438 34.4055C28.361 34.5419 28.2314 34.6476 28.0535 34.7211L23.4132 36.6801C23.4076 36.6823 23.4018 36.6812 23.3962 36.6837L23.147 36.7924C22.832 36.9245 22.5634 37.1473 22.3754 37.4324C22.1873 37.7175 22.0883 38.0521 22.0908 38.3937C22.0942 39.0957 22.5155 39.7208 23.1684 39.9882L26.7331 41.4228C28.7082 42.2226 31.0081 42.6284 33.5699 42.6284H36.1481C36.376 42.6284 36.5946 42.5379 36.7557 42.3767C36.9169 42.2156 37.0074 41.997 37.0074 41.7691C37.0074 41.5411 36.9169 41.3226 36.7557 41.1614C36.5946 41.0002 36.376 40.9097 36.1481 40.9097H33.5699C31.2633 40.9097 29.1225 40.5362 27.3768 39.8291L23.8231 38.3726L24.08 38.2611L24.0811 38.2639L28.7175 36.3068C29.2273 36.0948 29.6411 35.7457 29.9029 35.3135C30.2952 34.6992 30.4089 33.9373 30.2146 33.2239C30.0203 32.5109 29.5466 31.9319 28.8756 31.5907L28.6742 31.4897C27.4569 30.8707 26.0168 30.7692 24.7281 31.2094L19.9949 32.7985C19.8228 32.8559 19.6508 32.9068 19.4683 32.9433C18.966 33.0452 18.4688 33.0549 17.9829 32.9719C16.9666 32.8054 15.4648 32.6654 13.8044 32.8514V8.59375H28.4138V18.9062C28.4139 19.0467 28.4484 19.1849 28.5142 19.309C28.5801 19.433 28.6753 19.539 28.7916 19.6177C28.9079 19.6965 29.0417 19.7455 29.1813 19.7606C29.3209 19.7757 29.4621 19.7564 29.5925 19.7044L33.57 18.1133L37.5475 19.7044C37.678 19.7563 37.8192 19.7756 37.9588 19.7606C38.0984 19.7455 38.2322 19.6965 38.3486 19.6179C38.4649 19.5392 38.5602 19.4332 38.626 19.3091C38.6919 19.185 38.7263 19.0467 38.7263 18.9062V8.59375H53.3357V41.25H53.3354Z" stroke="#024F7C" stroke-width="0.4" mask="url(#path-1-outside-1_119_5081)"/>
</g>
<defs>
<clipPath id="clip0_119_5081">
<rect width="55" height="55" fill="white"/>
</clipPath>
</defs>
</svg>
