<svg width="20" height="20" viewBox="0 0 20 20" fill="none" xmlns="http://www.w3.org/2000/svg">
<g clip-path="url(#clip0_974_12984)">
<path d="M11.7198 20H8.28083C7.83689 20 7.45278 19.6867 7.35777 19.2468L6.97324 17.4413C6.46027 17.2133 5.97387 16.9282 5.523 16.5912L3.78742 17.1519C3.36416 17.2888 2.90404 17.1081 2.68202 16.7177L0.958732 13.698C0.739153 13.3075 0.814802 12.8149 1.14108 12.5107L2.4874 11.2648C2.42617 10.7005 2.42617 10.131 2.4874 9.56667L1.14108 8.32371C0.814322 8.01931 0.738642 7.52611 0.958732 7.13537L2.67824 4.11375C2.90026 3.72342 3.36038 3.54271 3.78364 3.67962L5.51922 4.24025C5.7498 4.06694 5.98985 3.90696 6.2382 3.76108C6.47661 3.62471 6.72196 3.50123 6.97324 3.39117L7.35872 1.58758C7.45326 1.14768 7.83696 0.833848 8.28083 0.833374H11.7198C12.1637 0.833848 12.5474 1.14768 12.642 1.58758L13.0312 3.39212C13.2965 3.51049 13.5549 3.64424 13.805 3.79271C14.0386 3.92954 14.2645 4.07959 14.4815 4.24217L16.218 3.68154C16.641 3.54514 17.1005 3.72578 17.3224 4.11567L19.0419 7.13729C19.2615 7.5278 19.1859 8.02041 18.8596 8.32467L17.5133 9.5705C17.5745 10.1349 17.5745 10.7043 17.5133 11.2687L18.8596 12.5145C19.1859 12.8188 19.2615 13.3114 19.0419 13.7019L17.3224 16.7235C17.1005 17.1134 16.641 17.294 16.218 17.1576L14.4815 16.597C14.2617 16.7612 14.0334 16.9131 13.7974 17.0522C13.5497 17.1978 13.2942 17.3293 13.0322 17.4461L12.642 19.2468C12.547 19.6863 12.1634 19.9997 11.7198 20ZM9.99656 6.58337C7.9094 6.58337 6.21741 8.29962 6.21741 10.4167C6.21741 12.5338 7.9094 14.25 9.99656 14.25C12.0837 14.25 13.7757 12.5338 13.7757 10.4167C13.7757 8.29962 12.0837 6.58337 9.99656 6.58337Z" fill="#024F7C"/>
</g>
<defs>
<clipPath id="clip0_974_12984">
<rect width="20" height="20" fill="white"/>
</clipPath>
</defs>
</svg>
