<svg width="20" height="20" viewBox="0 0 20 20" fill="none" xmlns="http://www.w3.org/2000/svg">
<path d="M2.00195 17V15H4.00195V8C4.00195 6.61667 4.41862 5.3875 5.25195 4.3125C6.08529 3.2375 7.16862 2.53333 8.50195 2.2V1.5C8.50195 1.08333 8.64779 0.729167 8.93945 0.4375C9.23112 0.145833 9.58529 0 10.002 0C10.4186 0 10.7728 0.145833 11.0645 0.4375C11.3561 0.729167 11.502 1.08333 11.502 1.5V2.2C12.8353 2.53333 13.9186 3.2375 14.752 4.3125C15.5853 5.3875 16.002 6.61667 16.002 8V15H18.002V17H2.00195ZM10.002 20C9.45195 20 8.98112 19.8042 8.58945 19.4125C8.19779 19.0208 8.00195 18.55 8.00195 18H12.002C12.002 18.55 11.8061 19.0208 11.4145 19.4125C11.0228 19.8042 10.552 20 10.002 20Z" fill="#024F7C"/>
</svg>
