<svg width="24" height="24" viewBox="0 0 24 24" fill="none" xmlns="http://www.w3.org/2000/svg">
<mask id="mask0_974_15290" style="mask-type:alpha" maskUnits="userSpaceOnUse" x="0" y="0" width="24" height="24">
<rect width="24" height="24" fill="#D9D9D9"/>
</mask>
<g mask="url(#mask0_974_15290)">
<path d="M12.9749 21.95V19.95C13.6749 19.85 14.3541 19.6583 15.0124 19.375C15.6707 19.0917 16.2916 18.7333 16.8749 18.3L18.3249 19.75C17.5416 20.3667 16.6999 20.8625 15.7999 21.2375C14.8999 21.6125 13.9582 21.85 12.9749 21.95ZM19.7249 18.3L18.3249 16.9C18.7582 16.35 19.1082 15.7458 19.3749 15.0875C19.6416 14.4292 19.8249 13.7333 19.9249 13H21.9749C21.8416 14.0333 21.5874 14.9958 21.2124 15.8875C20.8374 16.7792 20.3416 17.5833 19.7249 18.3ZM19.9249 11C19.8249 10.25 19.6416 9.54584 19.3749 8.8875C19.1082 8.22917 18.7582 7.63334 18.3249 7.1L19.7249 5.7C20.3582 6.43334 20.8707 7.25 21.2624 8.15C21.6541 9.05 21.8916 10 21.9749 11H19.9249ZM10.9749 21.95C8.4249 21.65 6.29574 20.5583 4.5874 18.675C2.87907 16.7917 2.0249 14.5667 2.0249 12C2.0249 9.41667 2.87907 7.18334 4.5874 5.3C6.29574 3.41667 8.4249 2.33334 10.9749 2.05V4.05C8.9749 4.33334 7.31657 5.225 5.9999 6.725C4.68324 8.225 4.0249 9.98334 4.0249 12C4.0249 14.0167 4.68324 15.7708 5.9999 17.2625C7.31657 18.7542 8.9749 19.65 10.9749 19.95V21.95ZM16.9249 5.7C16.3249 5.25 15.6916 4.88334 15.0249 4.6C14.3582 4.31667 13.6749 4.13334 12.9749 4.05V2.05C13.9582 2.13334 14.8999 2.3625 15.7999 2.7375C16.6999 3.1125 17.5416 3.61667 18.3249 4.25L16.9249 5.7ZM11.9999 17C11.0332 16.1833 10.1249 15.3083 9.2749 14.375C8.4249 13.4417 7.9999 12.35 7.9999 11.1C7.9999 9.96667 8.3874 9 9.1624 8.2C9.9374 7.4 10.8832 7 11.9999 7C13.1166 7 14.0624 7.4 14.8374 8.2C15.6124 9 15.9999 9.96667 15.9999 11.1C15.9999 12.35 15.5749 13.4417 14.7249 14.375C13.8749 15.3083 12.9666 16.1833 11.9999 17ZM11.9999 12C12.2999 12 12.5541 11.8958 12.7624 11.6875C12.9707 11.4792 13.0749 11.225 13.0749 10.925C13.0749 10.6417 12.9707 10.3917 12.7624 10.175C12.5541 9.95834 12.2999 9.85 11.9999 9.85C11.6999 9.85 11.4457 9.95834 11.2374 10.175C11.0291 10.3917 10.9249 10.6417 10.9249 10.925C10.9249 11.225 11.0291 11.4792 11.2374 11.6875C11.4457 11.8958 11.6999 12 11.9999 12Z" fill="black" fill-opacity="0.5"/>
</g>
</svg>
