<svg width="24" height="26" viewBox="0 0 24 26" fill="none" xmlns="http://www.w3.org/2000/svg">
<path d="M23.3972 5.95353L12.0066 0.0472842C11.9466 0.0162159 11.88 0 11.8125 0C11.745 0 11.6784 0.0162159 11.6184 0.0472842L0.227812 5.95353C0.159923 5.99004 0.103012 6.04401 0.0629624 6.10987C0.0229126 6.17573 0.00117628 6.25109 1.38728e-09 6.32816V18.9844C-6.26835e-06 19.0617 0.0212394 19.1376 0.0614159 19.2036C0.101592 19.2697 0.159154 19.3235 0.227812 19.359L11.6184 25.2653C11.6755 25.2956 11.739 25.3118 11.8035 25.3125C11.8681 25.3133 11.932 25.2985 11.9897 25.2695C11.9952 25.267 12.0015 25.2695 12.0066 25.2653L23.3972 19.359C23.4658 19.3235 23.5234 19.2697 23.5636 19.2036C23.6038 19.1376 23.625 19.0617 23.625 18.9844V6.32816C23.6237 6.25111 23.602 6.17578 23.5619 6.10994C23.5219 6.04409 23.465 5.99011 23.3972 5.95353ZM7.26469 10.352V13.1684L4.96969 11.9779V9.16147C6.05391 9.72341 5.67 9.52471 7.26469 10.352ZM18.1621 4.18967L7.68867 9.62089C6.04716 8.76997 6.49519 9.002 5.46328 8.46664L15.9363 3.03753L18.1621 4.18967ZM22.2868 6.32816L11.8125 11.7594L8.60625 10.0959L19.0789 4.66471L22.2868 6.32816ZM11.8125 0.89694L15.0187 2.56039L4.54612 7.99161L1.33819 6.32816L11.8125 0.89694ZM0.84375 7.02214L4.12594 8.72399V12.2344C4.12593 12.3117 4.14718 12.3876 4.18735 12.4536C4.22753 12.5197 4.28509 12.5735 4.35375 12.609L7.49208 14.2375C7.5564 14.2709 7.62825 14.2872 7.7007 14.2847C7.77314 14.2823 7.84374 14.2613 7.90568 14.2236C7.96762 14.186 8.01882 14.133 8.05433 14.0698C8.08985 14.0066 8.10848 13.9353 8.10844 13.8628V10.7891L11.3906 12.4909V24.1967L0.84375 18.7279V7.02214ZM22.7812 18.7279L12.2344 24.1967V12.4909L22.7812 7.02214V18.7279Z" fill="black"/>
</svg>
