<svg width="32" height="32" viewBox="0 0 32 32" fill="none" xmlns="http://www.w3.org/2000/svg">
<path d="M16.2666 7.18634C19.0933 7.18634 21.6931 8.17363 23.7598 9.82697L25.6533 7.93341C26.3333 8.49338 26.9599 9.13334 27.5332 9.81329L25.6396 11.7068C27.2796 13.7734 28.2665 16.3731 28.2666 19.1863C28.2666 25.813 22.9066 31.1863 16.2666 31.1863C9.6266 31.1863 4.2666 25.813 4.2666 19.1863C4.2668 12.5598 9.64005 7.18634 16.2666 7.18634ZM16.2666 9.867C11.1066 9.867 6.93361 14.04 6.93359 19.2C6.93359 24.36 11.1066 28.533 16.2666 28.533C21.4266 28.533 25.5996 24.36 25.5996 19.2C25.5996 14.04 21.4266 9.867 16.2666 9.867ZM17.5996 12.533V20.533H14.9336V12.533H17.5996ZM20.2666 5.867H12.2666V3.20001H20.2666V5.867Z" fill="#024F7C"/>
</svg>
