<svg width="55" height="55" viewBox="0 0 55 55" fill="none" xmlns="http://www.w3.org/2000/svg">
<path d="M5.15625 7.0752H36.0938C37.4082 7.0752 38.6692 7.59689 39.5986 8.52637C40.5281 9.45584 41.0498 10.7168 41.0498 12.0312V17.3877H44.7559C45.4984 17.3884 46.2313 17.556 46.9004 17.8779C47.5695 18.1999 48.1582 18.6682 48.6221 19.248L53.7129 25.6074C54.4168 26.4868 54.8001 27.5796 54.7998 28.7061V36.0938C54.7998 37.4082 54.2781 38.6692 53.3486 39.5986C52.4192 40.5281 51.1582 41.0498 49.8438 41.0498H47.9248V41.25C47.9248 43.0203 47.2215 44.7179 45.9697 45.9697C44.7179 47.2215 43.0203 47.9248 41.25 47.9248C39.4797 47.9248 37.7821 47.2215 36.5303 45.9697C35.2785 44.7179 34.5752 43.0203 34.5752 41.25V41.0498H16.9873V41.25C16.9892 42.1397 16.8132 43.0211 16.4697 43.8418C16.1263 44.6624 15.6223 45.4062 14.9873 46.0293C14.3522 46.6524 13.5986 47.1429 12.7715 47.4707C11.9445 47.7984 11.0602 47.9573 10.1709 47.9385C9.28137 47.9196 8.40427 47.723 7.5918 47.3604C6.77933 46.9977 6.0475 46.4757 5.43945 45.8262C4.83154 45.1767 4.35906 44.4126 4.05078 43.5781C3.74246 42.7435 3.6048 41.8556 3.64453 40.9668L3.65039 40.8184L3.51074 40.7695C2.54278 40.4288 1.70436 39.7955 1.11133 38.958C0.518404 38.1206 0.20014 37.1198 0.200195 36.0938V12.0312C0.200195 10.7168 0.72189 9.45584 1.65137 8.52637C2.58084 7.59689 3.84177 7.0752 5.15625 7.0752ZM10.3125 37.6123C9.34777 37.6123 8.4224 37.9956 7.74023 38.6777C7.05807 39.3599 6.67481 40.2853 6.6748 41.25C6.6748 42.2147 7.05807 43.1401 7.74023 43.8223C8.4224 44.5044 9.34777 44.8877 10.3125 44.8877C11.2772 44.8877 12.2026 44.5044 12.8848 43.8223C13.5669 43.1401 13.9502 42.2147 13.9502 41.25C13.9502 40.2853 13.5669 39.3599 12.8848 38.6777C12.2026 37.9956 11.2772 37.6123 10.3125 37.6123ZM41.25 37.6123C40.2853 37.6123 39.3599 37.9956 38.6777 38.6777C37.9956 39.3599 37.6123 40.2853 37.6123 41.25C37.6123 42.2147 37.9956 43.1401 38.6777 43.8223C39.3599 44.5044 40.2853 44.8877 41.25 44.8877C42.2147 44.8877 43.1401 44.5044 43.8223 43.8223C44.5044 43.1401 44.8877 42.2147 44.8877 41.25C44.8877 40.2853 44.5044 39.3599 43.8223 38.6777C43.1401 37.9956 42.2147 37.6123 41.25 37.6123ZM5.15625 10.1123C4.64737 10.1123 4.15964 10.315 3.7998 10.6748C3.43997 11.0346 3.2373 11.5224 3.2373 12.0312V36.0938L3.24219 36.2314C3.26504 36.5524 3.3688 36.8631 3.54395 37.1348C3.74407 37.4451 4.02971 37.6916 4.36621 37.8438L4.52637 37.916L4.61914 37.7656C5.22314 36.7787 6.07299 35.9655 7.08594 35.4062C8.09901 34.847 9.24036 34.5604 10.3975 34.5752C11.5545 34.59 12.6881 34.9053 13.6865 35.4902C14.6849 36.0752 15.5142 36.9101 16.0928 37.9121L16.1504 38.0127H35.4121L35.4697 37.9121C36.0555 36.8978 36.8978 36.0555 37.9121 35.4697L38.0127 35.4121V12.0312C38.0127 11.5224 37.81 11.0346 37.4502 10.6748C37.0904 10.315 36.6026 10.1123 36.0938 10.1123H5.15625ZM41.0498 34.5752H41.25C42.4216 34.5752 43.5723 34.8839 44.5869 35.4697C45.6015 36.0555 46.4444 36.8976 47.0303 37.9121L47.0879 38.0127H49.8438C50.3526 38.0127 50.8404 37.81 51.2002 37.4502C51.56 37.0904 51.7627 36.6026 51.7627 36.0938V28.7031L51.7549 28.54C51.7221 28.1631 51.579 27.8029 51.3408 27.5059L46.2529 21.1465C46.0735 20.9218 45.8459 20.7401 45.5869 20.6152C45.328 20.4904 45.0443 20.4253 44.7568 20.4248H41.0498V34.5752Z" fill="#024F7C" stroke="#E9F6FD" stroke-width="0.4"/>
</svg>
