<svg width="20" height="20" viewBox="0 0 20 20" fill="none" xmlns="http://www.w3.org/2000/svg">
<path d="M4.59355 5.33437L3.6623 8H7.50293V5H5.06855C4.85605 5 4.66543 5.13437 4.59668 5.33437H4.59355ZM1.51855 8.05937L2.70293 4.675C3.05605 3.67188 4.00293 3 5.06543 3H11.2498C12.0373 3 12.7779 3.37187 13.2498 4L16.2561 8.00937C18.3467 8.14062 19.9998 9.87813 19.9998 12V12.5C19.9998 13.6031 19.1029 14.5 17.9998 14.5H17.4873C17.3623 15.9031 16.1842 17 14.7498 17C13.3154 17 12.1373 15.9031 12.0123 14.5H7.49043C7.36543 15.9031 6.1873 17 4.75293 17C3.31855 17 2.14043 15.9031 2.01543 14.5H2.00293C0.899805 14.5 0.00292969 13.6031 0.00292969 12.5V10C0.00292969 9.05937 0.649805 8.27187 1.52168 8.05937H1.51855ZM13.7498 8L11.6498 5.2C11.5561 5.075 11.4061 5 11.2498 5H8.9998V8H13.7498ZM4.7498 15.5C5.44043 15.5 5.9998 14.9406 5.9998 14.25C5.9998 13.5594 5.44043 13 4.7498 13C4.05918 13 3.4998 13.5594 3.4998 14.25C3.4998 14.9406 4.05918 15.5 4.7498 15.5ZM15.9998 14.25C15.9998 13.5594 15.4404 13 14.7498 13C14.0592 13 13.4998 13.5594 13.4998 14.25C13.4998 14.9406 14.0592 15.5 14.7498 15.5C15.4404 15.5 15.9998 14.9406 15.9998 14.25Z" fill="#024F7C"/>
</svg>
