<svg width="17" height="15" viewBox="0 0 17 15" fill="none" xmlns="http://www.w3.org/2000/svg">
<path d="M10.2485 1.7693C9.75157 0.951172 9.07517 0.5 8.3439 0.5C7.61263 0.5 6.93578 0.951172 6.43882 1.7693L0.921015 10.8499C0.417311 11.6865 0.363343 12.5553 0.772602 13.2329C1.16207 13.8775 1.92617 14.2483 2.87017 14.25H13.8176C14.763 14.2483 15.5284 13.8787 15.9165 13.2355C16.3236 12.5622 16.2687 11.6968 15.7659 10.8615L10.2485 1.7693ZM15.5275 13.0207C15.2213 13.5277 14.5979 13.819 13.8167 13.8203H2.87062C2.09213 13.819 1.46969 13.5264 1.16207 13.0181C0.835116 12.4767 0.889534 11.7647 1.31049 11.0647L6.82784 1.985C7.24115 1.30437 7.77948 0.929687 8.3439 0.929687C8.90832 0.929687 9.44665 1.30437 9.85951 1.985L15.3769 11.0759C15.7974 11.7746 15.8522 12.4836 15.5275 13.0207Z" fill="#DC1818" stroke="#DC1818"/>
<path d="M8.34401 9.09375C8.40365 9.09375 8.46084 9.07112 8.50301 9.03082C8.54518 8.99053 8.56888 8.93589 8.56888 8.87891V4.58203C8.56888 4.52505 8.54518 4.4704 8.50301 4.43011C8.46084 4.38982 8.40365 4.36719 8.34401 4.36719C8.28437 4.36719 8.22717 4.38982 8.185 4.43011C8.14283 4.4704 8.11914 4.52505 8.11914 4.58203V8.87891C8.11914 8.93589 8.14283 8.99053 8.185 9.03082C8.22717 9.07112 8.28437 9.09375 8.34401 9.09375Z" fill="#DC1818" stroke="#DC1818"/>
<path d="M8.315 10.168C7.81894 10.168 7.41553 10.5534 7.41553 11.0273C7.41553 11.5013 7.81894 11.8867 8.315 11.8867C8.81106 11.8867 9.21447 11.5013 9.21447 11.0273C9.21447 10.5534 8.81106 10.168 8.315 10.168ZM8.315 11.457C8.1992 11.4521 8.08986 11.4046 8.00975 11.3246C7.92964 11.2446 7.88493 11.1381 7.88493 11.0273C7.88493 10.9166 7.92964 10.8101 8.00975 10.7301C8.08986 10.65 8.1992 10.6026 8.315 10.5977C8.4308 10.6026 8.54013 10.65 8.62024 10.7301C8.70036 10.8101 8.74507 10.9166 8.74507 11.0273C8.74507 11.1381 8.70036 11.2446 8.62024 11.3246C8.54013 11.4046 8.4308 11.4521 8.315 11.457Z" fill="#DC1818" stroke="#DC1818"/>
</svg>
